<?xml version="1.0" encoding="UTF-8" standalone="no"?>
<!DOCTYPE svg PUBLIC "-//W3C//DTD SVG 1.1//EN"
 "http://www.w3.org/Graphics/SVG/1.1/DTD/svg11.dtd">
<!-- Generated by graphviz version 2.47.0 (20210316.0004)
 -->
<!-- Title: dependencies Pages: 1 -->
<svg width="808pt" height="211pt"
 viewBox="0.00 0.00 808.00 211.00" xmlns="http://www.w3.org/2000/svg" xmlns:xlink="http://www.w3.org/1999/xlink">
<g id="graph0" class="graph" transform="scale(1 1) rotate(0) translate(4 207)">
<title>dependencies</title>
<polygon fill="white" stroke="transparent" points="-4,4 -4,-207 804,-207 804,4 -4,4"/>
<text text-anchor="start" x="379.01" y="-42.4" font-family="Times-12" font-weight="bold" font-size="14.00">Legend</text>
<polygon fill="#ffffb3" stroke="transparent" points="166,-10 166,-30 186,-30 186,-10 166,-10"/>
<text text-anchor="start" x="189.63" y="-15.4" font-family="Times-12" font-size="14.00"> &#160;Declarations</text>
<polygon fill="#8dd3c7" stroke="transparent" points="279,-10 279,-30 299,-30 299,-10 279,-10"/>
<text text-anchor="start" x="302.73" y="-15.4" font-family="Times-12" font-size="14.00"> &#160;Module</text>
<polygon fill="#80b1d3" stroke="transparent" points="365,-10 365,-30 385,-30 385,-10 365,-10"/>
<text text-anchor="start" x="388.78" y="-15.4" font-family="Times-12" font-size="14.00"> &#160;Bootstrap</text>
<polygon fill="#fdb462" stroke="transparent" points="462,-10 462,-30 482,-30 482,-10 462,-10"/>
<text text-anchor="start" x="485.67" y="-15.4" font-family="Times-12" font-size="14.00"> &#160;Providers</text>
<polygon fill="#fb8072" stroke="transparent" points="558,-10 558,-30 578,-30 578,-10 558,-10"/>
<text text-anchor="start" x="581.73" y="-15.4" font-family="Times-12" font-size="14.00"> &#160;Exports</text>
<g id="clust1" class="cluster">
<title>cluster_UsersModule</title>
<polygon fill="none" stroke="black" stroke-dasharray="1,5" points="8,-70 8,-195 792,-195 792,-70 8,-70"/>
</g>
<g id="clust2" class="cluster">
<title>cluster_UsersModule_declarations</title>
<polygon fill="none" stroke="black" points="422,-78 422,-130 784,-130 784,-78 422,-78"/>
</g>
<g id="clust5" class="cluster">
<title>cluster_UsersModule_imports</title>
<polygon fill="none" stroke="black" points="16,-78 16,-130 414,-130 414,-78 16,-78"/>
</g>
<!-- AccountInfoComponent -->
<g id="node1" class="node">
<title>AccountInfoComponent</title>
<polygon fill="#ffffb3" stroke="black" points="776.08,-122 623.92,-122 623.92,-86 776.08,-86 776.08,-122"/>
<text text-anchor="middle" x="700" y="-99.8" font-family="Times,serif" font-size="14.00">AccountInfoComponent</text>
</g>
<!-- UsersModule -->
<g id="node3" class="node">
<title>UsersModule</title>
<polygon fill="#8dd3c7" stroke="black" points="398.92,-187 395.92,-191 374.92,-191 371.92,-187 307.08,-187 307.08,-151 398.92,-151 398.92,-187"/>
<text text-anchor="middle" x="353" y="-164.8" font-family="Times,serif" font-size="14.00">UsersModule</text>
</g>
<!-- AccountInfoComponent&#45;&gt;UsersModule -->
<g id="edge1" class="edge">
<title>AccountInfoComponent&#45;&gt;UsersModule</title>
<path fill="none" stroke="black" d="M700,-122.28C700,-143.32 700,-175 700,-175 700,-175 408.72,-175 408.72,-175"/>
<polygon fill="black" stroke="black" points="408.72,-171.5 398.72,-175 408.72,-178.5 408.72,-171.5"/>
</g>
<!-- UserProfileFormComponent -->
<g id="node2" class="node">
<title>UserProfileFormComponent</title>
<polygon fill="#ffffb3" stroke="black" points="606.19,-122 429.81,-122 429.81,-86 606.19,-86 606.19,-122"/>
<text text-anchor="middle" x="518" y="-99.8" font-family="Times,serif" font-size="14.00">UserProfileFormComponent</text>
</g>
<!-- UserProfileFormComponent&#45;&gt;UsersModule -->
<g id="edge2" class="edge">
<title>UserProfileFormComponent&#45;&gt;UsersModule</title>
<path fill="none" stroke="black" d="M518,-122.02C518,-139.37 518,-163 518,-163 518,-163 408.96,-163 408.96,-163"/>
<polygon fill="black" stroke="black" points="408.96,-159.5 398.96,-163 408.96,-166.5 408.96,-159.5"/>
</g>
<!-- MaterialModule -->
<g id="node4" class="node">
<title>MaterialModule</title>
<polygon fill="#8dd3c7" stroke="black" points="406.47,-122 403.47,-126 382.47,-126 379.47,-122 299.53,-122 299.53,-86 406.47,-86 406.47,-122"/>
<text text-anchor="middle" x="353" y="-99.8" font-family="Times,serif" font-size="14.00">MaterialModule</text>
</g>
<!-- MaterialModule&#45;&gt;UsersModule -->
<g id="edge3" class="edge">
<title>MaterialModule&#45;&gt;UsersModule</title>
<path fill="none" stroke="black" d="M353,-122.11C353,-122.11 353,-140.99 353,-140.99"/>
<polygon fill="black" stroke="black" points="349.5,-140.99 353,-150.99 356.5,-140.99 349.5,-140.99"/>
</g>
<!-- ProfilesModule -->
<g id="node5" class="node">
<title>ProfilesModule</title>
<polygon fill="#8dd3c7" stroke="black" points="281.59,-122 278.59,-126 257.59,-126 254.59,-122 178.41,-122 178.41,-86 281.59,-86 281.59,-122"/>
<text text-anchor="middle" x="230" y="-99.8" font-family="Times,serif" font-size="14.00">ProfilesModule</text>
</g>
<!-- ProfilesModule&#45;&gt;UsersModule -->
<g id="edge4" class="edge">
<title>ProfilesModule&#45;&gt;UsersModule</title>
<path fill="none" stroke="black" d="M230,-122.02C230,-139.37 230,-163 230,-163 230,-163 297.2,-163 297.2,-163"/>
<polygon fill="black" stroke="black" points="297.2,-166.5 307.2,-163 297.2,-159.5 297.2,-166.5"/>
</g>
<!-- UsersRoutingModule -->
<g id="node6" class="node">
<title>UsersRoutingModule</title>
<polygon fill="#8dd3c7" stroke="black" points="160.04,-122 157.04,-126 136.04,-126 133.04,-122 23.96,-122 23.96,-86 160.04,-86 160.04,-122"/>
<text text-anchor="middle" x="92" y="-99.8" font-family="Times,serif" font-size="14.00">UsersRoutingModule</text>
</g>
<!-- UsersRoutingModule&#45;&gt;UsersModule -->
<g id="edge5" class="edge">
<title>UsersRoutingModule&#45;&gt;UsersModule</title>
<path fill="none" stroke="black" d="M92,-122.28C92,-143.32 92,-175 92,-175 92,-175 297.24,-175 297.24,-175"/>
<polygon fill="black" stroke="black" points="297.24,-178.5 307.24,-175 297.24,-171.5 297.24,-178.5"/>
</g>
</g>
</svg>
