<?xml version="1.0" encoding="UTF-8" standalone="no"?>
<!DOCTYPE svg PUBLIC "-//W3C//DTD SVG 1.1//EN"
 "http://www.w3.org/Graphics/SVG/1.1/DTD/svg11.dtd">
<!-- Generated by graphviz version 2.47.0 (20210316.0004)
 -->
<!-- Title: dependencies Pages: 1 -->
<svg width="504pt" height="284pt"
 viewBox="0.00 0.00 504.00 284.00" xmlns="http://www.w3.org/2000/svg" xmlns:xlink="http://www.w3.org/1999/xlink">
<g id="graph0" class="graph" transform="scale(1 1) rotate(0) translate(4 280)">
<title>dependencies</title>
<polygon fill="white" stroke="transparent" points="-4,4 -4,-280 500,-280 500,4 -4,4"/>
<text text-anchor="start" x="227.01" y="-42.4" font-family="Times-12" font-weight="bold" font-size="14.00">Legend</text>
<polygon fill="#ffffb3" stroke="transparent" points="14,-10 14,-30 34,-30 34,-10 14,-10"/>
<text text-anchor="start" x="37.63" y="-15.4" font-family="Times-12" font-size="14.00"> &#160;Declarations</text>
<polygon fill="#8dd3c7" stroke="transparent" points="127,-10 127,-30 147,-30 147,-10 127,-10"/>
<text text-anchor="start" x="150.73" y="-15.4" font-family="Times-12" font-size="14.00"> &#160;Module</text>
<polygon fill="#80b1d3" stroke="transparent" points="213,-10 213,-30 233,-30 233,-10 213,-10"/>
<text text-anchor="start" x="236.78" y="-15.4" font-family="Times-12" font-size="14.00"> &#160;Bootstrap</text>
<polygon fill="#fdb462" stroke="transparent" points="310,-10 310,-30 330,-30 330,-10 310,-10"/>
<text text-anchor="start" x="333.67" y="-15.4" font-family="Times-12" font-size="14.00"> &#160;Providers</text>
<polygon fill="#fb8072" stroke="transparent" points="406,-10 406,-30 426,-30 426,-10 406,-10"/>
<text text-anchor="start" x="429.73" y="-15.4" font-family="Times-12" font-size="14.00"> &#160;Exports</text>
<g id="clust1" class="cluster">
<title>cluster_ProfilesModule</title>
<polygon fill="none" stroke="black" stroke-dasharray="1,5" points="16.5,-70 16.5,-268 479.5,-268 479.5,-70 16.5,-70"/>
</g>
<g id="clust5" class="cluster">
<title>cluster_ProfilesModule_exports</title>
<polygon fill="none" stroke="black" points="187.5,-208 187.5,-260 353.5,-260 353.5,-208 187.5,-208"/>
</g>
<g id="clust4" class="cluster">
<title>cluster_ProfilesModule_imports</title>
<polygon fill="none" stroke="black" points="194.5,-78 194.5,-130 471.5,-130 471.5,-78 194.5,-78"/>
</g>
<g id="clust2" class="cluster">
<title>cluster_ProfilesModule_declarations</title>
<polygon fill="none" stroke="black" points="24.5,-78 24.5,-130 186.5,-130 186.5,-78 24.5,-78"/>
</g>
<!-- UserProfileComponent -->
<g id="node1" class="node">
<title>UserProfileComponent</title>
<polygon fill="#ffffb3" stroke="black" points="178.36,-122 32.64,-122 32.64,-86 178.36,-86 178.36,-122"/>
<text text-anchor="middle" x="105.5" y="-99.8" font-family="Times,serif" font-size="14.00">UserProfileComponent</text>
</g>
<!-- ProfilesModule -->
<g id="node2" class="node">
<title>ProfilesModule</title>
<polygon fill="#8dd3c7" stroke="black" points="322.09,-187 319.09,-191 298.09,-191 295.09,-187 218.91,-187 218.91,-151 322.09,-151 322.09,-187"/>
<text text-anchor="middle" x="270.5" y="-164.8" font-family="Times,serif" font-size="14.00">ProfilesModule</text>
</g>
<!-- UserProfileComponent&#45;&gt;ProfilesModule -->
<g id="edge1" class="edge">
<title>UserProfileComponent&#45;&gt;ProfilesModule</title>
<path fill="none" stroke="black" d="M105.5,-122.11C105.5,-141.34 105.5,-169 105.5,-169 105.5,-169 208.75,-169 208.75,-169"/>
<polygon fill="black" stroke="black" points="208.75,-172.5 218.75,-169 208.75,-165.5 208.75,-172.5"/>
</g>
<!-- UserProfileComponent  -->
<g id="node5" class="node">
<title>UserProfileComponent </title>
<polygon fill="#fb8072" stroke="black" points="345.36,-252 195.64,-252 195.64,-216 345.36,-216 345.36,-252"/>
<text text-anchor="middle" x="270.5" y="-229.8" font-family="Times,serif" font-size="14.00">UserProfileComponent </text>
</g>
<!-- ProfilesModule&#45;&gt;UserProfileComponent  -->
<g id="edge4" class="edge">
<title>ProfilesModule&#45;&gt;UserProfileComponent </title>
<path fill="none" stroke="black" stroke-dasharray="5,2" d="M270.5,-187.11C270.5,-187.11 270.5,-205.99 270.5,-205.99"/>
<polygon fill="black" stroke="black" points="267,-205.99 270.5,-215.99 274,-205.99 267,-205.99"/>
</g>
<!-- MaterialModule -->
<g id="node3" class="node">
<title>MaterialModule</title>
<polygon fill="#8dd3c7" stroke="black" points="463.97,-122 460.97,-126 439.97,-126 436.97,-122 357.03,-122 357.03,-86 463.97,-86 463.97,-122"/>
<text text-anchor="middle" x="410.5" y="-99.8" font-family="Times,serif" font-size="14.00">MaterialModule</text>
</g>
<!-- MaterialModule&#45;&gt;ProfilesModule -->
<g id="edge2" class="edge">
<title>MaterialModule&#45;&gt;ProfilesModule</title>
<path fill="none" stroke="black" d="M410.5,-122.11C410.5,-141.34 410.5,-169 410.5,-169 410.5,-169 332.23,-169 332.23,-169"/>
<polygon fill="black" stroke="black" points="332.23,-165.5 322.23,-169 332.23,-172.5 332.23,-165.5"/>
</g>
<!-- UsersRoutingModule -->
<g id="node4" class="node">
<title>UsersRoutingModule</title>
<polygon fill="#8dd3c7" stroke="black" points="338.54,-122 335.54,-126 314.54,-126 311.54,-122 202.46,-122 202.46,-86 338.54,-86 338.54,-122"/>
<text text-anchor="middle" x="270.5" y="-99.8" font-family="Times,serif" font-size="14.00">UsersRoutingModule</text>
</g>
<!-- UsersRoutingModule&#45;&gt;ProfilesModule -->
<g id="edge3" class="edge">
<title>UsersRoutingModule&#45;&gt;ProfilesModule</title>
<path fill="none" stroke="black" d="M270.5,-122.11C270.5,-122.11 270.5,-140.99 270.5,-140.99"/>
<polygon fill="black" stroke="black" points="267,-140.99 270.5,-150.99 274,-140.99 267,-140.99"/>
</g>
</g>
</svg>
