<?xml version="1.0" encoding="UTF-8" standalone="no"?>
<!DOCTYPE svg PUBLIC "-//W3C//DTD SVG 1.1//EN"
 "http://www.w3.org/Graphics/SVG/1.1/DTD/svg11.dtd">
<!-- Generated by graphviz version 2.47.0 (20210316.0004)
 -->
<!-- Title: dependencies Pages: 1 -->
<svg width="824pt" height="211pt"
 viewBox="0.00 0.00 824.00 211.00" xmlns="http://www.w3.org/2000/svg" xmlns:xlink="http://www.w3.org/1999/xlink">
<g id="graph0" class="graph" transform="scale(1 1) rotate(0) translate(4 207)">
<title>dependencies</title>
<polygon fill="white" stroke="transparent" points="-4,4 -4,-207 820,-207 820,4 -4,4"/>
<text text-anchor="start" x="387.01" y="-42.4" font-family="Times-12" font-weight="bold" font-size="14.00">Legend</text>
<polygon fill="#ffffb3" stroke="transparent" points="174,-10 174,-30 194,-30 194,-10 174,-10"/>
<text text-anchor="start" x="197.63" y="-15.4" font-family="Times-12" font-size="14.00"> &#160;Declarations</text>
<polygon fill="#8dd3c7" stroke="transparent" points="287,-10 287,-30 307,-30 307,-10 287,-10"/>
<text text-anchor="start" x="310.73" y="-15.4" font-family="Times-12" font-size="14.00"> &#160;Module</text>
<polygon fill="#80b1d3" stroke="transparent" points="373,-10 373,-30 393,-30 393,-10 373,-10"/>
<text text-anchor="start" x="396.78" y="-15.4" font-family="Times-12" font-size="14.00"> &#160;Bootstrap</text>
<polygon fill="#fdb462" stroke="transparent" points="470,-10 470,-30 490,-30 490,-10 470,-10"/>
<text text-anchor="start" x="493.67" y="-15.4" font-family="Times-12" font-size="14.00"> &#160;Providers</text>
<polygon fill="#fb8072" stroke="transparent" points="566,-10 566,-30 586,-30 586,-10 566,-10"/>
<text text-anchor="start" x="589.73" y="-15.4" font-family="Times-12" font-size="14.00"> &#160;Exports</text>
<g id="clust1" class="cluster">
<title>cluster_MusicalBandsModule</title>
<polygon fill="none" stroke="black" stroke-dasharray="1,5" points="8,-70 8,-195 808,-195 808,-70 8,-70"/>
</g>
<g id="clust6" class="cluster">
<title>cluster_MusicalBandsModule_imports</title>
<polygon fill="none" stroke="black" points="556,-78 556,-130 800,-130 800,-78 556,-78"/>
</g>
<g id="clust2" class="cluster">
<title>cluster_MusicalBandsModule_declarations</title>
<polygon fill="none" stroke="black" points="16,-78 16,-130 548,-130 548,-78 16,-78"/>
</g>
<!-- BandFormComponent -->
<g id="node1" class="node">
<title>BandFormComponent</title>
<polygon fill="#ffffb3" stroke="black" points="539.72,-122 398.28,-122 398.28,-86 539.72,-86 539.72,-122"/>
<text text-anchor="middle" x="469" y="-99.8" font-family="Times,serif" font-size="14.00">BandFormComponent</text>
</g>
<!-- MusicalBandsModule -->
<g id="node4" class="node">
<title>MusicalBandsModule</title>
<polygon fill="#8dd3c7" stroke="black" points="538.65,-187 535.65,-191 514.65,-191 511.65,-187 399.35,-187 399.35,-151 538.65,-151 538.65,-187"/>
<text text-anchor="middle" x="469" y="-164.8" font-family="Times,serif" font-size="14.00">MusicalBandsModule</text>
</g>
<!-- BandFormComponent&#45;&gt;MusicalBandsModule -->
<g id="edge1" class="edge">
<title>BandFormComponent&#45;&gt;MusicalBandsModule</title>
<path fill="none" stroke="black" d="M469,-122.11C469,-122.11 469,-140.99 469,-140.99"/>
<polygon fill="black" stroke="black" points="465.5,-140.99 469,-150.99 472.5,-140.99 465.5,-140.99"/>
</g>
<!-- BandInfoComponent -->
<g id="node2" class="node">
<title>BandInfoComponent</title>
<polygon fill="#ffffb3" stroke="black" points="380.2,-122 245.8,-122 245.8,-86 380.2,-86 380.2,-122"/>
<text text-anchor="middle" x="313" y="-99.8" font-family="Times,serif" font-size="14.00">BandInfoComponent</text>
</g>
<!-- BandInfoComponent&#45;&gt;MusicalBandsModule -->
<g id="edge2" class="edge">
<title>BandInfoComponent&#45;&gt;MusicalBandsModule</title>
<path fill="none" stroke="black" d="M313,-122.02C313,-139.37 313,-163 313,-163 313,-163 389.21,-163 389.21,-163"/>
<polygon fill="black" stroke="black" points="389.21,-166.5 399.21,-163 389.21,-159.5 389.21,-166.5"/>
</g>
<!-- BandMembersSurveyComponent -->
<g id="node3" class="node">
<title>BandMembersSurveyComponent</title>
<polygon fill="#ffffb3" stroke="black" points="227.91,-122 24.09,-122 24.09,-86 227.91,-86 227.91,-122"/>
<text text-anchor="middle" x="126" y="-99.8" font-family="Times,serif" font-size="14.00">BandMembersSurveyComponent</text>
</g>
<!-- BandMembersSurveyComponent&#45;&gt;MusicalBandsModule -->
<g id="edge3" class="edge">
<title>BandMembersSurveyComponent&#45;&gt;MusicalBandsModule</title>
<path fill="none" stroke="black" d="M126,-122.28C126,-143.32 126,-175 126,-175 126,-175 389.18,-175 389.18,-175"/>
<polygon fill="black" stroke="black" points="389.18,-178.5 399.18,-175 389.18,-171.5 389.18,-178.5"/>
</g>
<!-- MaterialModule -->
<g id="node5" class="node">
<title>MaterialModule</title>
<polygon fill="#8dd3c7" stroke="black" points="792.47,-122 789.47,-126 768.47,-126 765.47,-122 685.53,-122 685.53,-86 792.47,-86 792.47,-122"/>
<text text-anchor="middle" x="739" y="-99.8" font-family="Times,serif" font-size="14.00">MaterialModule</text>
</g>
<!-- MaterialModule&#45;&gt;MusicalBandsModule -->
<g id="edge4" class="edge">
<title>MaterialModule&#45;&gt;MusicalBandsModule</title>
<path fill="none" stroke="black" d="M739,-122.28C739,-143.32 739,-175 739,-175 739,-175 548.88,-175 548.88,-175"/>
<polygon fill="black" stroke="black" points="548.88,-171.5 538.88,-175 548.88,-178.5 548.88,-171.5"/>
</g>
<!-- ProfilesModule -->
<g id="node6" class="node">
<title>ProfilesModule</title>
<polygon fill="#8dd3c7" stroke="black" points="667.59,-122 664.59,-126 643.59,-126 640.59,-122 564.41,-122 564.41,-86 667.59,-86 667.59,-122"/>
<text text-anchor="middle" x="616" y="-99.8" font-family="Times,serif" font-size="14.00">ProfilesModule</text>
</g>
<!-- ProfilesModule&#45;&gt;MusicalBandsModule -->
<g id="edge5" class="edge">
<title>ProfilesModule&#45;&gt;MusicalBandsModule</title>
<path fill="none" stroke="black" d="M616,-122.02C616,-139.37 616,-163 616,-163 616,-163 549.06,-163 549.06,-163"/>
<polygon fill="black" stroke="black" points="549.06,-159.5 539.06,-163 549.06,-166.5 549.06,-159.5"/>
</g>
</g>
</svg>
