<?xml version="1.0" encoding="UTF-8" standalone="no"?>
<!DOCTYPE svg PUBLIC "-//W3C//DTD SVG 1.1//EN"
 "http://www.w3.org/Graphics/SVG/1.1/DTD/svg11.dtd">
<!-- Generated by graphviz version 2.47.0 (20210316.0004)
 -->
<!-- Title: dependencies Pages: 1 -->
<svg width="618pt" height="284pt"
 viewBox="0.00 0.00 618.00 284.00" xmlns="http://www.w3.org/2000/svg" xmlns:xlink="http://www.w3.org/1999/xlink">
<g id="graph0" class="graph" transform="scale(1 1) rotate(0) translate(4 280)">
<title>dependencies</title>
<polygon fill="white" stroke="transparent" points="-4,4 -4,-280 614,-280 614,4 -4,4"/>
<text text-anchor="start" x="284.01" y="-42.4" font-family="Times-12" font-weight="bold" font-size="14.00">Legend</text>
<polygon fill="#ffffb3" stroke="transparent" points="71,-10 71,-30 91,-30 91,-10 71,-10"/>
<text text-anchor="start" x="94.63" y="-15.4" font-family="Times-12" font-size="14.00"> &#160;Declarations</text>
<polygon fill="#8dd3c7" stroke="transparent" points="184,-10 184,-30 204,-30 204,-10 184,-10"/>
<text text-anchor="start" x="207.73" y="-15.4" font-family="Times-12" font-size="14.00"> &#160;Module</text>
<polygon fill="#80b1d3" stroke="transparent" points="270,-10 270,-30 290,-30 290,-10 270,-10"/>
<text text-anchor="start" x="293.78" y="-15.4" font-family="Times-12" font-size="14.00"> &#160;Bootstrap</text>
<polygon fill="#fdb462" stroke="transparent" points="367,-10 367,-30 387,-30 387,-10 367,-10"/>
<text text-anchor="start" x="390.67" y="-15.4" font-family="Times-12" font-size="14.00"> &#160;Providers</text>
<polygon fill="#fb8072" stroke="transparent" points="463,-10 463,-30 483,-30 483,-10 463,-10"/>
<text text-anchor="start" x="486.73" y="-15.4" font-family="Times-12" font-size="14.00"> &#160;Exports</text>
<g id="clust1" class="cluster">
<title>cluster_MaterialModule</title>
<polygon fill="none" stroke="black" stroke-dasharray="1,5" points="8,-70 8,-268 602,-268 602,-70 8,-70"/>
</g>
<g id="clust2" class="cluster">
<title>cluster_MaterialModule_declarations</title>
<polygon fill="none" stroke="black" points="16,-78 16,-130 594,-130 594,-78 16,-78"/>
</g>
<g id="clust7" class="cluster">
<title>cluster_MaterialModule_exports</title>
<polygon fill="none" stroke="black" points="107,-208 107,-260 478,-260 478,-208 107,-208"/>
</g>
<!-- ChangeBorderOnClickDirective -->
<g id="node1" class="node">
<title>ChangeBorderOnClickDirective</title>
<polygon fill="#ffffb3" stroke="black" points="585.66,-122 388.34,-122 388.34,-86 585.66,-86 585.66,-122"/>
<text text-anchor="middle" x="487" y="-99.8" font-family="Times,serif" font-size="14.00">ChangeBorderOnClickDirective</text>
</g>
<!-- MaterialModule -->
<g id="node4" class="node">
<title>MaterialModule</title>
<polygon fill="#8dd3c7" stroke="black" points="326.47,-187 323.47,-191 302.47,-191 299.47,-187 219.53,-187 219.53,-151 326.47,-151 326.47,-187"/>
<text text-anchor="middle" x="273" y="-164.8" font-family="Times,serif" font-size="14.00">MaterialModule</text>
</g>
<!-- ChangeBorderOnClickDirective&#45;&gt;MaterialModule -->
<g id="edge1" class="edge">
<title>ChangeBorderOnClickDirective&#45;&gt;MaterialModule</title>
<path fill="none" stroke="black" d="M429.38,-122.11C429.38,-141.34 429.38,-169 429.38,-169 429.38,-169 336.82,-169 336.82,-169"/>
<polygon fill="black" stroke="black" points="336.82,-165.5 326.82,-169 336.82,-172.5 336.82,-165.5"/>
</g>
<!-- ConfirmationDialogComponent -->
<g id="node2" class="node">
<title>ConfirmationDialogComponent</title>
<polygon fill="#ffffb3" stroke="black" points="370.37,-122 175.63,-122 175.63,-86 370.37,-86 370.37,-122"/>
<text text-anchor="middle" x="273" y="-99.8" font-family="Times,serif" font-size="14.00">ConfirmationDialogComponent</text>
</g>
<!-- ConfirmationDialogComponent&#45;&gt;MaterialModule -->
<g id="edge2" class="edge">
<title>ConfirmationDialogComponent&#45;&gt;MaterialModule</title>
<path fill="none" stroke="black" d="M273,-122.11C273,-122.11 273,-140.99 273,-140.99"/>
<polygon fill="black" stroke="black" points="269.5,-140.99 273,-150.99 276.5,-140.99 269.5,-140.99"/>
</g>
<!-- WaitCursorDirective -->
<g id="node3" class="node">
<title>WaitCursorDirective</title>
<polygon fill="#ffffb3" stroke="black" points="157.9,-122 24.1,-122 24.1,-86 157.9,-86 157.9,-122"/>
<text text-anchor="middle" x="91" y="-99.8" font-family="Times,serif" font-size="14.00">WaitCursorDirective</text>
</g>
<!-- WaitCursorDirective&#45;&gt;MaterialModule -->
<g id="edge3" class="edge">
<title>WaitCursorDirective&#45;&gt;MaterialModule</title>
<path fill="none" stroke="black" d="M136.12,-122.11C136.12,-141.34 136.12,-169 136.12,-169 136.12,-169 209.3,-169 209.3,-169"/>
<polygon fill="black" stroke="black" points="209.3,-172.5 219.3,-169 209.3,-165.5 209.3,-172.5"/>
</g>
<!-- ChangeBorderOnClickDirective  -->
<g id="node5" class="node">
<title>ChangeBorderOnClickDirective </title>
<polygon fill="#fb8072" stroke="black" points="470.16,-252 269.84,-252 269.84,-216 470.16,-216 470.16,-252"/>
<text text-anchor="middle" x="370" y="-229.8" font-family="Times,serif" font-size="14.00">ChangeBorderOnClickDirective </text>
</g>
<!-- MaterialModule&#45;&gt;ChangeBorderOnClickDirective  -->
<g id="edge4" class="edge">
<title>MaterialModule&#45;&gt;ChangeBorderOnClickDirective </title>
<path fill="none" stroke="black" stroke-dasharray="5,2" d="M298.08,-187.11C298.08,-187.11 298.08,-205.99 298.08,-205.99"/>
<polygon fill="black" stroke="black" points="294.58,-205.99 298.08,-215.99 301.58,-205.99 294.58,-205.99"/>
</g>
<!-- WaitCursorDirective  -->
<g id="node6" class="node">
<title>WaitCursorDirective </title>
<polygon fill="#fb8072" stroke="black" points="251.4,-252 114.6,-252 114.6,-216 251.4,-216 251.4,-252"/>
<text text-anchor="middle" x="183" y="-229.8" font-family="Times,serif" font-size="14.00">WaitCursorDirective </text>
</g>
<!-- MaterialModule&#45;&gt;WaitCursorDirective  -->
<g id="edge5" class="edge">
<title>MaterialModule&#45;&gt;WaitCursorDirective </title>
<path fill="none" stroke="black" stroke-dasharray="5,2" d="M235.48,-187.11C235.48,-187.11 235.48,-205.99 235.48,-205.99"/>
<polygon fill="black" stroke="black" points="231.98,-205.99 235.48,-215.99 238.98,-205.99 231.98,-205.99"/>
</g>
</g>
</svg>
