<?xml version="1.0" encoding="UTF-8" standalone="no"?>
<!DOCTYPE svg PUBLIC "-//W3C//DTD SVG 1.1//EN"
 "http://www.w3.org/Graphics/SVG/1.1/DTD/svg11.dtd">
<!-- Generated by graphviz version 2.47.0 (20210316.0004)
 -->
<!-- Title: dependencies Pages: 1 -->
<svg width="2431pt" height="363pt"
 viewBox="0.00 0.00 2431.00 363.00" xmlns="http://www.w3.org/2000/svg" xmlns:xlink="http://www.w3.org/1999/xlink">
<g id="graph0" class="graph" transform="scale(1 1) rotate(0) translate(4 359)">
<title>dependencies</title>
<polygon fill="white" stroke="transparent" points="-4,4 -4,-359 2427,-359 2427,4 -4,4"/>
<text text-anchor="start" x="1190.51" y="-42.4" font-family="Times-12" font-weight="bold" font-size="14.00">Legend</text>
<polygon fill="#ffffb3" stroke="transparent" points="977.5,-10 977.5,-30 997.5,-30 997.5,-10 977.5,-10"/>
<text text-anchor="start" x="1001.13" y="-15.4" font-family="Times-12" font-size="14.00"> &#160;Declarations</text>
<polygon fill="#8dd3c7" stroke="transparent" points="1090.5,-10 1090.5,-30 1110.5,-30 1110.5,-10 1090.5,-10"/>
<text text-anchor="start" x="1114.23" y="-15.4" font-family="Times-12" font-size="14.00"> &#160;Module</text>
<polygon fill="#80b1d3" stroke="transparent" points="1176.5,-10 1176.5,-30 1196.5,-30 1196.5,-10 1176.5,-10"/>
<text text-anchor="start" x="1200.28" y="-15.4" font-family="Times-12" font-size="14.00"> &#160;Bootstrap</text>
<polygon fill="#fdb462" stroke="transparent" points="1273.5,-10 1273.5,-30 1293.5,-30 1293.5,-10 1273.5,-10"/>
<text text-anchor="start" x="1297.17" y="-15.4" font-family="Times-12" font-size="14.00"> &#160;Providers</text>
<polygon fill="#fb8072" stroke="transparent" points="1369.5,-10 1369.5,-30 1389.5,-30 1389.5,-10 1369.5,-10"/>
<text text-anchor="start" x="1393.23" y="-15.4" font-family="Times-12" font-size="14.00"> &#160;Exports</text>
<g id="clust1" class="cluster">
<title>cluster_AppModule</title>
<polygon fill="none" stroke="black" stroke-dasharray="1,5" points="8,-70 8,-290 526,-290 526,-70 8,-70"/>
</g>
<g id="clust2" class="cluster">
<title>cluster_AppModule_declarations</title>
<polygon fill="none" stroke="black" points="396,-78 396,-130 518,-130 518,-78 396,-78"/>
</g>
<g id="clust4" class="cluster">
<title>cluster_AppModule_imports</title>
<polygon fill="none" stroke="black" points="244,-78 244,-130 388,-130 388,-78 244,-78"/>
</g>
<g id="clust6" class="cluster">
<title>cluster_AppModule_bootstrap</title>
<polygon fill="none" stroke="black" points="254,-230 254,-282 378,-282 378,-230 254,-230"/>
</g>
<g id="clust7" class="cluster">
<title>cluster_AppModule_providers</title>
<polygon fill="none" stroke="black" points="16,-78 16,-130 236,-130 236,-78 16,-78"/>
</g>
<g id="clust14" class="cluster">
<title>cluster_AuthModule</title>
<polygon fill="none" stroke="black" stroke-dasharray="1,5" points="534,-146 534,-282 1101,-282 1101,-146 534,-146"/>
</g>
<g id="clust15" class="cluster">
<title>cluster_AuthModule_declarations</title>
<polygon fill="none" stroke="black" points="542,-154 542,-206 812,-206 812,-154 542,-154"/>
</g>
<g id="clust18" class="cluster">
<title>cluster_AuthModule_imports</title>
<polygon fill="none" stroke="black" points="820,-154 820,-206 1093,-206 1093,-154 820,-154"/>
</g>
<g id="clust28" class="cluster">
<title>cluster_MainPageModule</title>
<polygon fill="none" stroke="black" stroke-dasharray="1,5" points="2059,-70 2059,-206 2415,-206 2415,-70 2059,-70"/>
</g>
<g id="clust29" class="cluster">
<title>cluster_MainPageModule_declarations</title>
<polygon fill="none" stroke="black" points="2253,-78 2253,-130 2407,-130 2407,-78 2253,-78"/>
</g>
<g id="clust31" class="cluster">
<title>cluster_MainPageModule_imports</title>
<polygon fill="none" stroke="black" points="2067,-78 2067,-130 2245,-130 2245,-78 2067,-78"/>
</g>
<g id="clust41" class="cluster">
<title>cluster_MaterialModule</title>
<polygon fill="none" stroke="black" stroke-dasharray="1,5" points="538,-70 538,-138 1510,-138 1510,-70 538,-70"/>
</g>
<g id="clust42" class="cluster">
<title>cluster_MaterialModule_declarations</title>
<polygon fill="none" stroke="black" points="925,-78 925,-130 1502,-130 1502,-78 925,-78"/>
</g>
<g id="clust47" class="cluster">
<title>cluster_MaterialModule_exports</title>
<polygon fill="none" stroke="black" points="546,-78 546,-130 917,-130 917,-78 546,-78"/>
</g>
<g id="clust50" class="cluster">
<title>cluster_MusicalBandsModule</title>
<polygon fill="none" stroke="black" stroke-dasharray="1,5" points="1109,-222 1109,-347 1784,-347 1784,-222 1109,-222"/>
</g>
<g id="clust51" class="cluster">
<title>cluster_MusicalBandsModule_declarations</title>
<polygon fill="none" stroke="black" points="1117,-230 1117,-282 1648,-282 1648,-230 1117,-230"/>
</g>
<g id="clust55" class="cluster">
<title>cluster_MusicalBandsModule_imports</title>
<polygon fill="none" stroke="black" points="1656,-230 1656,-282 1776,-282 1776,-230 1656,-230"/>
</g>
<g id="clust59" class="cluster">
<title>cluster_ProfilesModule</title>
<polygon fill="none" stroke="black" stroke-dasharray="1,5" points="1539,-146 1539,-214 2051,-214 2051,-146 1539,-146"/>
</g>
<g id="clust60" class="cluster">
<title>cluster_ProfilesModule_declarations</title>
<polygon fill="none" stroke="black" points="1721,-154 1721,-206 1883,-206 1883,-154 1721,-154"/>
</g>
<g id="clust62" class="cluster">
<title>cluster_ProfilesModule_imports</title>
<polygon fill="none" stroke="black" points="1891,-154 1891,-206 2043,-206 2043,-154 1891,-154"/>
</g>
<g id="clust63" class="cluster">
<title>cluster_ProfilesModule_exports</title>
<polygon fill="none" stroke="black" points="1547,-154 1547,-206 1713,-206 1713,-154 1547,-154"/>
</g>
<g id="clust66" class="cluster">
<title>cluster_UsersModule</title>
<polygon fill="none" stroke="black" stroke-dasharray="1,5" points="1792,-222 1792,-347 2170,-347 2170,-222 1792,-222"/>
</g>
<g id="clust67" class="cluster">
<title>cluster_UsersModule_declarations</title>
<polygon fill="none" stroke="black" points="1800,-230 1800,-282 2162,-282 2162,-230 1800,-230"/>
</g>
<!-- AppComponent -->
<g id="node1" class="node">
<title>AppComponent</title>
<polygon fill="#ffffb3" stroke="black" points="509.94,-122 404.06,-122 404.06,-86 509.94,-86 509.94,-122"/>
<text text-anchor="middle" x="457" y="-99.8" font-family="Times,serif" font-size="14.00">AppComponent</text>
</g>
<!-- AppModule -->
<g id="node2" class="node">
<title>AppModule</title>
<polygon fill="#8dd3c7" stroke="black" points="357.66,-198 354.66,-202 333.66,-202 330.66,-198 274.34,-198 274.34,-162 357.66,-162 357.66,-198"/>
<text text-anchor="middle" x="316" y="-175.8" font-family="Times,serif" font-size="14.00">AppModule</text>
</g>
<!-- AppComponent&#45;&gt;AppModule -->
<g id="edge1" class="edge">
<title>AppComponent&#45;&gt;AppModule</title>
<path fill="none" stroke="black" d="M457,-122.01C457,-144.49 457,-180 457,-180 457,-180 367.92,-180 367.92,-180"/>
<polygon fill="black" stroke="black" points="367.92,-176.5 357.92,-180 367.92,-183.5 367.92,-176.5"/>
</g>
<!-- AppComponent  -->
<g id="node4" class="node">
<title>AppComponent </title>
<polygon fill="#80b1d3" stroke="black" points="370.44,-274 261.56,-274 261.56,-238 370.44,-238 370.44,-274"/>
<text text-anchor="middle" x="316" y="-251.8" font-family="Times,serif" font-size="14.00">AppComponent </text>
</g>
<!-- AppModule&#45;&gt;AppComponent  -->
<g id="edge3" class="edge">
<title>AppModule&#45;&gt;AppComponent </title>
<path fill="none" stroke="black" stroke-dasharray="1,5" d="M316,-198.01C316,-198.01 316,-227.85 316,-227.85"/>
<polygon fill="black" stroke="black" points="312.5,-227.85 316,-237.85 319.5,-227.85 312.5,-227.85"/>
</g>
<!-- AppRoutingModule -->
<g id="node3" class="node">
<title>AppRoutingModule</title>
<polygon fill="#8dd3c7" stroke="black" points="380.27,-122 377.27,-126 356.27,-126 353.27,-122 251.73,-122 251.73,-86 380.27,-86 380.27,-122"/>
<text text-anchor="middle" x="316" y="-99.8" font-family="Times,serif" font-size="14.00">AppRoutingModule</text>
</g>
<!-- AppRoutingModule&#45;&gt;AppModule -->
<g id="edge2" class="edge">
<title>AppRoutingModule&#45;&gt;AppModule</title>
<path fill="none" stroke="black" d="M316,-122.01C316,-122.01 316,-151.85 316,-151.85"/>
<polygon fill="black" stroke="black" points="312.5,-151.85 316,-161.85 319.5,-151.85 312.5,-151.85"/>
</g>
<!-- AuthInterceptorService -->
<g id="node5" class="node">
<title>AuthInterceptorService</title>
<ellipse fill="#fdb462" stroke="black" cx="126" cy="-104" rx="101.82" ry="18"/>
<text text-anchor="middle" x="126" y="-99.8" font-family="Times,serif" font-size="14.00">AuthInterceptorService</text>
</g>
<!-- AuthInterceptorService&#45;&gt;AppModule -->
<g id="edge4" class="edge">
<title>AuthInterceptorService&#45;&gt;AppModule</title>
<path fill="none" stroke="black" d="M126,-122.01C126,-144.49 126,-180 126,-180 126,-180 264.3,-180 264.3,-180"/>
<polygon fill="black" stroke="black" points="264.3,-183.5 274.3,-180 264.3,-176.5 264.3,-183.5"/>
</g>
<!-- LoginComponent -->
<g id="node6" class="node">
<title>LoginComponent</title>
<polygon fill="#ffffb3" stroke="black" points="804.28,-198 689.72,-198 689.72,-162 804.28,-162 804.28,-198"/>
<text text-anchor="middle" x="747" y="-175.8" font-family="Times,serif" font-size="14.00">LoginComponent</text>
</g>
<!-- AuthModule -->
<g id="node8" class="node">
<title>AuthModule</title>
<polygon fill="#8dd3c7" stroke="black" points="863.55,-274 860.55,-278 839.55,-278 836.55,-274 776.45,-274 776.45,-238 863.55,-238 863.55,-274"/>
<text text-anchor="middle" x="820" y="-251.8" font-family="Times,serif" font-size="14.00">AuthModule</text>
</g>
<!-- LoginComponent&#45;&gt;AuthModule -->
<g id="edge5" class="edge">
<title>LoginComponent&#45;&gt;AuthModule</title>
<path fill="none" stroke="black" d="M790.31,-198.01C790.31,-198.01 790.31,-227.85 790.31,-227.85"/>
<polygon fill="black" stroke="black" points="786.81,-227.85 790.31,-237.85 793.81,-227.85 786.81,-227.85"/>
</g>
<!-- SignupComponent -->
<g id="node7" class="node">
<title>SignupComponent</title>
<polygon fill="#ffffb3" stroke="black" points="671.51,-198 550.49,-198 550.49,-162 671.51,-162 671.51,-198"/>
<text text-anchor="middle" x="611" y="-175.8" font-family="Times,serif" font-size="14.00">SignupComponent</text>
</g>
<!-- SignupComponent&#45;&gt;AuthModule -->
<g id="edge6" class="edge">
<title>SignupComponent&#45;&gt;AuthModule</title>
<path fill="none" stroke="black" d="M611,-198.01C611,-220.49 611,-256 611,-256 611,-256 766.44,-256 766.44,-256"/>
<polygon fill="black" stroke="black" points="766.44,-259.5 776.44,-256 766.44,-252.5 766.44,-259.5"/>
</g>
<!-- AuthRoutingModule -->
<g id="node9" class="node">
<title>AuthRoutingModule</title>
<polygon fill="#8dd3c7" stroke="black" points="960.17,-198 957.17,-202 936.17,-202 933.17,-198 827.83,-198 827.83,-162 960.17,-162 960.17,-198"/>
<text text-anchor="middle" x="894" y="-175.8" font-family="Times,serif" font-size="14.00">AuthRoutingModule</text>
</g>
<!-- AuthRoutingModule&#45;&gt;AuthModule -->
<g id="edge7" class="edge">
<title>AuthRoutingModule&#45;&gt;AuthModule</title>
<path fill="none" stroke="black" d="M845.72,-198.01C845.72,-198.01 845.72,-227.85 845.72,-227.85"/>
<polygon fill="black" stroke="black" points="842.22,-227.85 845.72,-237.85 849.22,-227.85 842.22,-227.85"/>
</g>
<!-- MaterialModule -->
<g id="node10" class="node">
<title>MaterialModule</title>
<polygon fill="#8dd3c7" stroke="black" points="1085.47,-198 1082.47,-202 1061.47,-202 1058.47,-198 978.53,-198 978.53,-162 1085.47,-162 1085.47,-198"/>
<text text-anchor="middle" x="1032" y="-175.8" font-family="Times,serif" font-size="14.00">MaterialModule</text>
</g>
<!-- MaterialModule&#45;&gt;AuthModule -->
<g id="edge8" class="edge">
<title>MaterialModule&#45;&gt;AuthModule</title>
<path fill="none" stroke="black" d="M1032,-198.01C1032,-220.49 1032,-256 1032,-256 1032,-256 873.67,-256 873.67,-256"/>
<polygon fill="black" stroke="black" points="873.67,-252.5 863.67,-256 873.67,-259.5 873.67,-252.5"/>
</g>
<!-- ChangeBorderOnClickDirective  -->
<g id="node17" class="node">
<title>ChangeBorderOnClickDirective </title>
<polygon fill="#fb8072" stroke="black" points="909.16,-122 708.84,-122 708.84,-86 909.16,-86 909.16,-122"/>
<text text-anchor="middle" x="809" y="-99.8" font-family="Times,serif" font-size="14.00">ChangeBorderOnClickDirective </text>
</g>
<!-- MaterialModule&#45;&gt;ChangeBorderOnClickDirective  -->
<g id="edge14" class="edge">
<title>MaterialModule&#45;&gt;ChangeBorderOnClickDirective </title>
<path fill="none" stroke="black" stroke-dasharray="5,2" d="M1032,-161.85C1032,-149.73 1032,-136 1032,-136 1032,-136 868.5,-136 868.5,-136 868.5,-136 868.5,-132.24 868.5,-132.24"/>
<polygon fill="black" stroke="black" points="872,-132.24 868.5,-122.24 865,-132.24 872,-132.24"/>
</g>
<!-- WaitCursorDirective  -->
<g id="node18" class="node">
<title>WaitCursorDirective </title>
<polygon fill="#fb8072" stroke="black" points="690.4,-122 553.6,-122 553.6,-86 690.4,-86 690.4,-122"/>
<text text-anchor="middle" x="622" y="-99.8" font-family="Times,serif" font-size="14.00">WaitCursorDirective </text>
</g>
<!-- MaterialModule&#45;&gt;WaitCursorDirective  -->
<g id="edge15" class="edge">
<title>MaterialModule&#45;&gt;WaitCursorDirective </title>
<path fill="none" stroke="black" stroke-dasharray="5,2" d="M1005.26,-161.97C1005.26,-155.15 1005.26,-149 1005.26,-149 1005.26,-149 680.56,-149 680.56,-149 680.56,-149 680.56,-132.04 680.56,-132.04"/>
<polygon fill="black" stroke="black" points="684.06,-132.04 680.56,-122.04 677.06,-132.04 684.06,-132.04"/>
</g>
<!-- MusicalBandsModule -->
<g id="node22" class="node">
<title>MusicalBandsModule</title>
<polygon fill="#8dd3c7" stroke="black" points="1417.65,-339 1414.65,-343 1393.65,-343 1390.65,-339 1278.35,-339 1278.35,-303 1417.65,-303 1417.65,-339"/>
<text text-anchor="middle" x="1348" y="-316.8" font-family="Times,serif" font-size="14.00">MusicalBandsModule</text>
</g>
<!-- MaterialModule&#45;&gt;MusicalBandsModule -->
<g id="edge19" class="edge">
<title>MaterialModule&#45;&gt;MusicalBandsModule</title>
<path fill="none" stroke="black" d="M1058.74,-198.03C1058.74,-237.28 1058.74,-327 1058.74,-327 1058.74,-327 1268.35,-327 1268.35,-327"/>
<polygon fill="black" stroke="black" points="1268.35,-330.5 1278.35,-327 1268.35,-323.5 1268.35,-330.5"/>
</g>
<!-- ProfilesModule -->
<g id="node23" class="node">
<title>ProfilesModule</title>
<polygon fill="#8dd3c7" stroke="black" points="1767.59,-274 1764.59,-278 1743.59,-278 1740.59,-274 1664.41,-274 1664.41,-238 1767.59,-238 1767.59,-274"/>
<text text-anchor="middle" x="1716" y="-251.8" font-family="Times,serif" font-size="14.00">ProfilesModule</text>
</g>
<!-- MaterialModule&#45;&gt;ProfilesModule -->
<g id="edge22" class="edge">
<title>MaterialModule&#45;&gt;ProfilesModule</title>
<path fill="none" stroke="black" d="M1005.26,-198.24C1005.26,-205.43 1005.26,-212 1005.26,-212 1005.26,-212 1677.86,-212 1677.86,-212 1677.86,-212 1677.86,-227.85 1677.86,-227.85"/>
<polygon fill="black" stroke="black" points="1674.36,-227.85 1677.86,-237.85 1681.36,-227.85 1674.36,-227.85"/>
</g>
<!-- UsersModule -->
<g id="node29" class="node">
<title>UsersModule</title>
<polygon fill="#8dd3c7" stroke="black" points="2123.92,-339 2120.92,-343 2099.92,-343 2096.92,-339 2032.08,-339 2032.08,-303 2123.92,-303 2123.92,-339"/>
<text text-anchor="middle" x="2078" y="-316.8" font-family="Times,serif" font-size="14.00">UsersModule</text>
</g>
<!-- MaterialModule&#45;&gt;UsersModule -->
<g id="edge27" class="edge">
<title>MaterialModule&#45;&gt;UsersModule</title>
<path fill="none" stroke="black" d="M1085.74,-189C1193.87,-189 1427.45,-189 1427.45,-189 1427.45,-189 1427.45,-334 1427.45,-334 1427.45,-334 2022.25,-334 2022.25,-334"/>
<polygon fill="black" stroke="black" points="2022.25,-337.5 2032.25,-334 2022.25,-330.5 2022.25,-337.5"/>
</g>
<!-- MainPageComponent -->
<g id="node11" class="node">
<title>MainPageComponent</title>
<polygon fill="#ffffb3" stroke="black" points="2399.09,-122 2260.91,-122 2260.91,-86 2399.09,-86 2399.09,-122"/>
<text text-anchor="middle" x="2330" y="-99.8" font-family="Times,serif" font-size="14.00">MainPageComponent</text>
</g>
<!-- MainPageModule -->
<g id="node12" class="node">
<title>MainPageModule</title>
<polygon fill="#8dd3c7" stroke="black" points="2301.31,-198 2298.31,-202 2277.31,-202 2274.31,-198 2184.69,-198 2184.69,-162 2301.31,-162 2301.31,-198"/>
<text text-anchor="middle" x="2243" y="-175.8" font-family="Times,serif" font-size="14.00">MainPageModule</text>
</g>
<!-- MainPageComponent&#45;&gt;MainPageModule -->
<g id="edge9" class="edge">
<title>MainPageComponent&#45;&gt;MainPageModule</title>
<path fill="none" stroke="black" d="M2281.05,-122.01C2281.05,-122.01 2281.05,-151.85 2281.05,-151.85"/>
<polygon fill="black" stroke="black" points="2277.55,-151.85 2281.05,-161.85 2284.55,-151.85 2277.55,-151.85"/>
</g>
<!-- MainPageRoutingModule -->
<g id="node13" class="node">
<title>MainPageRoutingModule</title>
<polygon fill="#8dd3c7" stroke="black" points="2236.93,-122 2233.93,-126 2212.93,-126 2209.93,-122 2075.07,-122 2075.07,-86 2236.93,-86 2236.93,-122"/>
<text text-anchor="middle" x="2156" y="-99.8" font-family="Times,serif" font-size="14.00">MainPageRoutingModule</text>
</g>
<!-- MainPageRoutingModule&#45;&gt;MainPageModule -->
<g id="edge10" class="edge">
<title>MainPageRoutingModule&#45;&gt;MainPageModule</title>
<path fill="none" stroke="black" d="M2210.78,-122.01C2210.78,-122.01 2210.78,-151.85 2210.78,-151.85"/>
<polygon fill="black" stroke="black" points="2207.28,-151.85 2210.78,-161.85 2214.28,-151.85 2207.28,-151.85"/>
</g>
<!-- ChangeBorderOnClickDirective -->
<g id="node14" class="node">
<title>ChangeBorderOnClickDirective</title>
<polygon fill="#ffffb3" stroke="black" points="1130.66,-122 933.34,-122 933.34,-86 1130.66,-86 1130.66,-122"/>
<text text-anchor="middle" x="1032" y="-99.8" font-family="Times,serif" font-size="14.00">ChangeBorderOnClickDirective</text>
</g>
<!-- ChangeBorderOnClickDirective&#45;&gt;MaterialModule -->
<g id="edge11" class="edge">
<title>ChangeBorderOnClickDirective&#45;&gt;MaterialModule</title>
<path fill="none" stroke="black" d="M1058.74,-122.01C1058.74,-122.01 1058.74,-151.85 1058.74,-151.85"/>
<polygon fill="black" stroke="black" points="1055.24,-151.85 1058.74,-161.85 1062.24,-151.85 1055.24,-151.85"/>
</g>
<!-- ConfirmationDialogComponent -->
<g id="node15" class="node">
<title>ConfirmationDialogComponent</title>
<polygon fill="#ffffb3" stroke="black" points="1494.37,-122 1299.63,-122 1299.63,-86 1494.37,-86 1494.37,-122"/>
<text text-anchor="middle" x="1397" y="-99.8" font-family="Times,serif" font-size="14.00">ConfirmationDialogComponent</text>
</g>
<!-- ConfirmationDialogComponent&#45;&gt;MaterialModule -->
<g id="edge12" class="edge">
<title>ConfirmationDialogComponent&#45;&gt;MaterialModule</title>
<path fill="none" stroke="black" d="M1359.09,-122.01C1359.09,-144.49 1359.09,-180 1359.09,-180 1359.09,-180 1095.65,-180 1095.65,-180"/>
<polygon fill="black" stroke="black" points="1095.65,-176.5 1085.65,-180 1095.65,-183.5 1095.65,-176.5"/>
</g>
<!-- WaitCursorDirective -->
<g id="node16" class="node">
<title>WaitCursorDirective</title>
<polygon fill="#ffffb3" stroke="black" points="1281.9,-122 1148.1,-122 1148.1,-86 1281.9,-86 1281.9,-122"/>
<text text-anchor="middle" x="1215" y="-99.8" font-family="Times,serif" font-size="14.00">WaitCursorDirective</text>
</g>
<!-- WaitCursorDirective&#45;&gt;MaterialModule -->
<g id="edge13" class="edge">
<title>WaitCursorDirective&#45;&gt;MaterialModule</title>
<path fill="none" stroke="black" d="M1203.7,-122.31C1203.7,-142.15 1203.7,-171 1203.7,-171 1203.7,-171 1095.86,-171 1095.86,-171"/>
<polygon fill="black" stroke="black" points="1095.86,-167.5 1085.86,-171 1095.86,-174.5 1095.86,-167.5"/>
</g>
<!-- BandFormComponent -->
<g id="node19" class="node">
<title>BandFormComponent</title>
<polygon fill="#ffffb3" stroke="black" points="1418.72,-274 1277.28,-274 1277.28,-238 1418.72,-238 1418.72,-274"/>
<text text-anchor="middle" x="1348" y="-251.8" font-family="Times,serif" font-size="14.00">BandFormComponent</text>
</g>
<!-- BandFormComponent&#45;&gt;MusicalBandsModule -->
<g id="edge16" class="edge">
<title>BandFormComponent&#45;&gt;MusicalBandsModule</title>
<path fill="none" stroke="black" d="M1348,-274.11C1348,-274.11 1348,-292.99 1348,-292.99"/>
<polygon fill="black" stroke="black" points="1344.5,-292.99 1348,-302.99 1351.5,-292.99 1344.5,-292.99"/>
</g>
<!-- BandInfoComponent -->
<g id="node20" class="node">
<title>BandInfoComponent</title>
<polygon fill="#ffffb3" stroke="black" points="1259.2,-274 1124.8,-274 1124.8,-238 1259.2,-238 1259.2,-274"/>
<text text-anchor="middle" x="1192" y="-251.8" font-family="Times,serif" font-size="14.00">BandInfoComponent</text>
</g>
<!-- BandInfoComponent&#45;&gt;MusicalBandsModule -->
<g id="edge17" class="edge">
<title>BandInfoComponent&#45;&gt;MusicalBandsModule</title>
<path fill="none" stroke="black" d="M1192,-274.02C1192,-291.37 1192,-315 1192,-315 1192,-315 1268.21,-315 1268.21,-315"/>
<polygon fill="black" stroke="black" points="1268.21,-318.5 1278.21,-315 1268.21,-311.5 1268.21,-318.5"/>
</g>
<!-- BandMembersSurveyComponent -->
<g id="node21" class="node">
<title>BandMembersSurveyComponent</title>
<polygon fill="#ffffb3" stroke="black" points="1639.91,-274 1436.09,-274 1436.09,-238 1639.91,-238 1639.91,-274"/>
<text text-anchor="middle" x="1538" y="-251.8" font-family="Times,serif" font-size="14.00">BandMembersSurveyComponent</text>
</g>
<!-- BandMembersSurveyComponent&#45;&gt;MusicalBandsModule -->
<g id="edge18" class="edge">
<title>BandMembersSurveyComponent&#45;&gt;MusicalBandsModule</title>
<path fill="none" stroke="black" d="M1538,-274.24C1538,-289.57 1538,-309 1538,-309 1538,-309 1427.67,-309 1427.67,-309"/>
<polygon fill="black" stroke="black" points="1427.67,-305.5 1417.67,-309 1427.67,-312.5 1427.67,-305.5"/>
</g>
<!-- ProfilesModule&#45;&gt;MusicalBandsModule -->
<g id="edge20" class="edge">
<title>ProfilesModule&#45;&gt;MusicalBandsModule</title>
<path fill="none" stroke="black" d="M1698.82,-274.03C1698.82,-291.06 1698.82,-314 1698.82,-314 1698.82,-314 1427.73,-314 1427.73,-314"/>
<polygon fill="black" stroke="black" points="1427.73,-310.5 1417.73,-314 1427.73,-317.5 1427.73,-310.5"/>
</g>
<!-- UserProfileComponent  -->
<g id="node26" class="node">
<title>UserProfileComponent </title>
<polygon fill="#fb8072" stroke="black" points="1704.86,-198 1555.14,-198 1555.14,-162 1704.86,-162 1704.86,-198"/>
<text text-anchor="middle" x="1630" y="-175.8" font-family="Times,serif" font-size="14.00">UserProfileComponent </text>
</g>
<!-- ProfilesModule&#45;&gt;UserProfileComponent  -->
<g id="edge24" class="edge">
<title>ProfilesModule&#45;&gt;UserProfileComponent </title>
<path fill="none" stroke="black" stroke-dasharray="5,2" d="M1691.27,-237.99C1691.27,-237.99 1691.27,-208.15 1691.27,-208.15"/>
<polygon fill="black" stroke="black" points="1694.77,-208.15 1691.27,-198.15 1687.77,-208.15 1694.77,-208.15"/>
</g>
<!-- ProfilesModule&#45;&gt;UsersModule -->
<g id="edge28" class="edge">
<title>ProfilesModule&#45;&gt;UsersModule</title>
<path fill="none" stroke="black" d="M1733.18,-274.04C1733.18,-295.66 1733.18,-329 1733.18,-329 1733.18,-329 2022.21,-329 2022.21,-329"/>
<polygon fill="black" stroke="black" points="2022.21,-332.5 2032.21,-329 2022.21,-325.5 2022.21,-332.5"/>
</g>
<!-- UserProfileComponent -->
<g id="node24" class="node">
<title>UserProfileComponent</title>
<polygon fill="#ffffb3" stroke="black" points="1874.86,-198 1729.14,-198 1729.14,-162 1874.86,-162 1874.86,-198"/>
<text text-anchor="middle" x="1802" y="-175.8" font-family="Times,serif" font-size="14.00">UserProfileComponent</text>
</g>
<!-- UserProfileComponent&#45;&gt;ProfilesModule -->
<g id="edge21" class="edge">
<title>UserProfileComponent&#45;&gt;ProfilesModule</title>
<path fill="none" stroke="black" d="M1741.9,-198.01C1741.9,-198.01 1741.9,-227.85 1741.9,-227.85"/>
<polygon fill="black" stroke="black" points="1738.4,-227.85 1741.9,-237.85 1745.4,-227.85 1738.4,-227.85"/>
</g>
<!-- UsersRoutingModule -->
<g id="node25" class="node">
<title>UsersRoutingModule</title>
<polygon fill="#8dd3c7" stroke="black" points="2035.04,-198 2032.04,-202 2011.04,-202 2008.04,-198 1898.96,-198 1898.96,-162 2035.04,-162 2035.04,-198"/>
<text text-anchor="middle" x="1967" y="-175.8" font-family="Times,serif" font-size="14.00">UsersRoutingModule</text>
</g>
<!-- UsersRoutingModule&#45;&gt;ProfilesModule -->
<g id="edge23" class="edge">
<title>UsersRoutingModule&#45;&gt;ProfilesModule</title>
<path fill="none" stroke="black" d="M1941.41,-198.04C1941.41,-210.56 1941.41,-225 1941.41,-225 1941.41,-225 1754.72,-225 1754.72,-225 1754.72,-225 1754.72,-227.97 1754.72,-227.97"/>
<polygon fill="black" stroke="black" points="1751.22,-227.97 1754.72,-237.97 1758.22,-227.97 1751.22,-227.97"/>
</g>
<!-- UsersRoutingModule&#45;&gt;UsersModule -->
<g id="edge29" class="edge">
<title>UsersRoutingModule&#45;&gt;UsersModule</title>
<path fill="none" stroke="black" d="M1993.03,-198.17C1993.03,-235.85 1993.03,-319 1993.03,-319 1993.03,-319 2022.03,-319 2022.03,-319"/>
<polygon fill="black" stroke="black" points="2022.03,-322.5 2032.03,-319 2022.03,-315.5 2022.03,-322.5"/>
</g>
<!-- AccountInfoComponent -->
<g id="node27" class="node">
<title>AccountInfoComponent</title>
<polygon fill="#ffffb3" stroke="black" points="2154.08,-274 2001.92,-274 2001.92,-238 2154.08,-238 2154.08,-274"/>
<text text-anchor="middle" x="2078" y="-251.8" font-family="Times,serif" font-size="14.00">AccountInfoComponent</text>
</g>
<!-- AccountInfoComponent&#45;&gt;UsersModule -->
<g id="edge25" class="edge">
<title>AccountInfoComponent&#45;&gt;UsersModule</title>
<path fill="none" stroke="black" d="M2078,-274.11C2078,-274.11 2078,-292.99 2078,-292.99"/>
<polygon fill="black" stroke="black" points="2074.5,-292.99 2078,-302.99 2081.5,-292.99 2074.5,-292.99"/>
</g>
<!-- UserProfileFormComponent -->
<g id="node28" class="node">
<title>UserProfileFormComponent</title>
<polygon fill="#ffffb3" stroke="black" points="1984.19,-274 1807.81,-274 1807.81,-238 1984.19,-238 1984.19,-274"/>
<text text-anchor="middle" x="1896" y="-251.8" font-family="Times,serif" font-size="14.00">UserProfileFormComponent</text>
</g>
<!-- UserProfileFormComponent&#45;&gt;UsersModule -->
<g id="edge26" class="edge">
<title>UserProfileFormComponent&#45;&gt;UsersModule</title>
<path fill="none" stroke="black" d="M1896,-274.22C1896,-294.37 1896,-324 1896,-324 1896,-324 2022.07,-324 2022.07,-324"/>
<polygon fill="black" stroke="black" points="2022.07,-327.5 2032.07,-324 2022.07,-320.5 2022.07,-327.5"/>
</g>
</g>
</svg>
